<?xml version="1.0" standalone="no"?>
<!DOCTYPE svg PUBLIC "-//W3C//DTD SVG 20010904//EN"
 "http://www.w3.org/TR/2001/REC-SVG-20010904/DTD/svg10.dtd">
<svg version="1.0" xmlns="http://www.w3.org/2000/svg"
 width="1200.000000pt" height="1024.000000pt" viewBox="0 0 1200.000000 1024.000000"
 preserveAspectRatio="xMidYMid meet">

<g transform="translate(0.000000,1024.000000) scale(0.100000,-0.100000)"
fill="#000000" stroke="none">
<path d="M8634 7567 c-77 -67 -284 -244 -460 -394 -175 -149 -364 -310 -419
-358 -129 -112 -326 -280 -380 -325 -23 -19 -152 -129 -285 -245 -134 -115
-307 -264 -385 -330 -143 -122 -456 -389 -640 -546 -55 -48 -111 -99 -124
-113 l-24 -26 306 0 307 0 2 -1417 3 -1418 968 -3 967 -2 0 975 0 975 315 0
315 0 0 -975 0 -975 970 0 970 0 0 1420 0 1420 318 0 317 1 -45 40 c-25 23
-101 87 -170 142 -146 119 -645 544 -950 811 -69 60 -137 120 -152 133 l-28
23 0 550 0 550 -275 0 -275 0 0 -320 0 -320 -122 103 c-66 56 -196 165 -287
242 -92 77 -262 222 -379 323 -117 100 -213 182 -215 182 -1 0 -65 -55 -143
-123z m312 -792 c71 -60 189 -164 263 -230 74 -66 202 -178 285 -249 83 -71
203 -175 266 -231 104 -91 470 -407 575 -495 23 -20 74 -65 113 -100 l72 -64
0 -1268 0 -1268 -478 0 -479 0 -6 122 c-4 66 -7 510 -7 985 l0 863 -765 0
-765 0 -2 -982 -3 -983 -476 -3 -476 -2 -7 31 c-3 17 -6 586 -6 1265 l0 1233
43 39 c23 22 137 121 252 222 116 100 275 240 355 310 80 71 242 212 360 315
118 103 247 215 285 250 39 34 153 132 254 219 162 138 186 155 201 144 10 -7
75 -62 146 -123z"/>
<path d="M2310 6354 c-50 -21 -1674 -1645 -1700 -1700 -24 -48 -26 -111 -5
-162 11 -26 260 -281 828 -850 447 -447 829 -824 849 -838 41 -29 99 -40 153
-30 43 8 103 59 121 103 20 46 17 118 -5 161 -11 20 -311 328 -670 687 -358
357 -651 653 -651 657 0 5 977 8 2170 8 2363 0 2206 -4 2262 56 79 85 59 223
-40 282 l-47 27 -2173 5 -2172 5 651 650 c442 441 657 663 670 690 60 128 -25
266 -163 265 -24 -1 -59 -8 -78 -16z"/>
</g>
</svg>
