<?xml version="1.0" standalone="no"?>
<!DOCTYPE svg PUBLIC "-//W3C//DTD SVG 20010904//EN"
 "http://www.w3.org/TR/2001/REC-SVG-20010904/DTD/svg10.dtd">
<svg version="1.0" xmlns="http://www.w3.org/2000/svg"
 width="512.000000pt" height="360.000000pt" viewBox="0 0 512.000000 360.000000"
 preserveAspectRatio="xMidYMid meet">

<g transform="translate(0.000000,360.000000) scale(0.100000,-0.100000)"
fill="#000000" stroke="none">
<path d="M1720 3584 c-50 -21 -1674 -1645 -1700 -1700 -24 -48 -26 -111 -5
-162 11 -26 260 -281 828 -850 447 -447 829 -824 849 -838 41 -29 99 -40 153
-30 43 8 103 59 121 103 20 46 17 118 -5 161 -11 20 -311 328 -670 687 -358
357 -651 653 -651 657 0 5 977 8 2170 8 2363 0 2206 -4 2262 56 79 85 59 223
-40 282 l-47 27 -2173 5 -2172 5 651 650 c442 441 657 663 670 690 60 128 -25
266 -163 265 -24 -1 -59 -8 -78 -16z"/>
</g>
</svg>
