<?xml version="1.0" standalone="no"?>
<!DOCTYPE svg PUBLIC "-//W3C//DTD SVG 20010904//EN"
 "http://www.w3.org/TR/2001/REC-SVG-20010904/DTD/svg10.dtd">
<svg version="1.0" xmlns="http://www.w3.org/2000/svg"
 width="1319.000000pt" height="192.000000pt" viewBox="0 0 1319.000000 192.000000"
 preserveAspectRatio="xMidYMid meet">

<g transform="translate(0.000000,192.000000) scale(0.100000,-0.100000)"
fill="#000000" stroke="none">
<path d="M2411 1774 c-133 -36 -257 -135 -312 -251 -57 -120 -68 -202 -71
-558 -3 -302 -2 -325 19 -413 40 -166 129 -301 240 -359 286 -153 621 -57 755
215 30 60 31 70 36 215 l4 152 -171 0 -171 0 0 -55 c-1 -203 -56 -300 -172
-300 -55 0 -97 30 -131 94 -20 38 -22 60 -28 326 -7 307 -4 469 12 540 18 80
74 120 168 120 50 0 65 -4 90 -26 48 -40 55 -60 61 -184 l5 -115 171 -3 172
-2 -5 107 c-6 147 -18 207 -52 278 -52 105 -165 191 -291 219 -86 20 -256 20
-329 0z"/>
<path d="M8485 1685 c-19 -106 -86 -388 -161 -680 -72 -282 -122 -500 -159
-699 -8 -43 -17 -82 -21 -85 -3 -3 -5 47 -3 112 l4 118 -230 -1 -230 -1 0 656
0 655 -166 0 -166 0 -6 -352 c-4 -194 -7 -557 -7 -806 l0 -453 562 3 563 3 17
75 c10 41 24 109 31 150 l13 75 173 0 174 0 7 -25 c4 -14 20 -81 35 -150 l27
-125 181 -4 c149 -3 179 -1 174 10 -44 102 -71 190 -95 319 -17 85 -49 229
-72 320 -23 91 -59 242 -81 335 -21 94 -50 211 -64 260 -14 50 -39 150 -55
224 -17 74 -33 137 -36 140 -3 3 -93 8 -199 11 l-193 5 -17 -90z m246 -431
c10 -65 33 -211 53 -323 20 -112 35 -206 33 -208 -3 -2 -56 -2 -119 -1 l-115
3 28 160 c46 270 67 398 74 448 11 80 28 50 46 -79z"/>
<path d="M152 1623 l3 -148 141 2 141 2 7 -76 c3 -42 6 -341 6 -665 l0 -588
170 0 170 0 0 665 0 665 139 0 138 0 5 138 c3 75 3 139 1 142 -3 3 -211 7
-464 8 l-460 4 3 -149z"/>
<path d="M4680 1763 l-385 -3 -2 -783 c-1 -430 -5 -791 -7 -802 -5 -20 0 -20
594 -20 387 0 602 4 608 10 5 6 28 62 51 125 59 158 153 380 161 380 4 0 13
-15 20 -32 7 -18 55 -127 105 -243 51 -116 95 -218 98 -228 6 -15 24 -17 182
-17 164 0 175 1 165 17 -6 10 -25 56 -44 103 -19 47 -63 148 -99 225 -36 77
-102 218 -146 314 l-80 173 101 207 c215 439 279 573 276 576 -2 1 -83 0 -180
-3 l-176 -4 -26 -58 c-14 -32 -26 -60 -26 -63 0 -9 -152 -341 -159 -350 -5 -4
-26 34 -48 85 -77 176 -142 333 -148 361 l-7 27 -157 0 c-86 0 -185 2 -221 3
-36 2 -238 2 -450 0z m581 -286 c38 -81 69 -149 69 -151 0 -2 40 -80 89 -173
l90 -170 -72 -144 c-113 -227 -194 -408 -217 -479 -11 -36 -36 -94 -56 -130
-31 -58 -34 -61 -30 -30 3 19 9 84 12 143 l7 108 -252 -3 c-234 -3 -252 -2
-257 15 -3 10 -2 98 1 195 l8 177 202 0 c112 0 205 2 208 5 3 3 8 67 12 143
l7 137 -226 0 -226 0 0 178 0 177 202 -3 c112 -2 227 -1 256 3 l54 7 -7 126
-6 127 31 -55 c18 -30 63 -121 101 -203z"/>
<path d="M6295 1252 c-12 -860 -11 -960 4 -1034 l13 -68 159 0 159 0 0 283 0
282 90 3 c296 10 444 81 531 257 33 68 34 73 38 217 5 237 -22 340 -120 443
-54 57 -119 94 -202 114 -29 7 -171 13 -357 16 l-308 5 -7 -518z m571 223 c53
-22 64 -60 64 -212 0 -103 -4 -136 -19 -168 -34 -75 -92 -105 -204 -105 l-73
0 2 248 c1 136 2 248 3 250 5 10 198 0 227 -13z"/>
<path d="M9267 1076 c-7 -734 -7 -747 40 -870 l18 -48 140 1 c76 1 141 4 144
7 5 5 4 1585 -1 1589 -2 1 -78 5 -169 8 l-166 5 -6 -692z"/>
<path d="M9703 966 l-2 -806 157 0 157 0 4 417 c2 229 7 451 10 492 l7 76 28
-90 c69 -223 113 -352 173 -510 99 -263 145 -379 153 -388 4 -5 84 -5 176 -2
l169 8 1 798 1 799 -117 0 c-65 0 -138 3 -164 6 l-48 7 4 -491 c2 -270 1 -489
-1 -487 -4 4 -34 86 -96 265 -40 115 -123 335 -227 598 l-41 102 -136 0 c-75
0 -152 3 -171 6 l-35 6 -2 -806z"/>
<path d="M10820 1414 c0 -193 -3 -554 -7 -802 l-6 -452 441 0 442 0 0 150 0
150 -262 0 -263 0 1 173 c0 94 2 179 2 187 2 13 34 15 237 12 l235 -3 0 149 0
148 -234 -4 -234 -4 -6 63 c-3 35 -5 115 -4 177 l3 113 263 -1 262 -1 0 148 0
148 -435 0 -435 0 0 -351z"/>
<path d="M11755 1476 c-3 -160 -5 -522 -3 -805 l3 -514 280 0 c190 -1 301 3
345 12 204 40 344 184 384 396 19 103 29 531 16 683 -12 138 -37 216 -96 304
-72 106 -184 177 -314 197 -36 6 -187 12 -336 14 l-272 4 -7 -291z m570 -16
c56 -27 74 -63 86 -175 14 -122 -4 -626 -24 -703 -16 -59 -55 -107 -104 -128
-18 -8 -66 -14 -110 -14 l-78 0 3 520 2 520 92 0 c71 0 101 -4 133 -20z"/>
<path d="M1130 1707 c0 -28 -1 -390 -3 -802 l-2 -750 440 0 440 0 0 152 0 153
-262 0 -263 0 0 188 0 187 232 -3 233 -3 0 148 0 148 -231 0 -232 0 -6 44 c-8
56 -8 139 0 232 l7 75 253 -1 254 -2 0 61 c0 34 3 98 7 144 l6 82 -437 0 -436
0 0 -53z"/>
<path d="M3145 1538 c-11 -377 -14 -688 -8 -1044 l6 -342 172 2 173 1 6 50 c3
28 6 178 6 335 l0 285 162 2 161 3 -6 -339 -5 -339 179 0 179 -1 0 782 c0 430
3 792 6 805 l6 22 -176 0 -176 0 0 -123 c0 -68 -3 -211 -7 -318 l-6 -194 -157
-1 -157 -2 -7 76 c-6 74 1 480 9 535 l5 27 -179 0 -179 0 -7 -222z"/>
</g>
</svg>
